<?xml version="1.0" encoding="UTF-8" standalone="no"?>
<!DOCTYPE svg PUBLIC "-//W3C//DTD SVG 1.1//EN"
		"http://www.w3.org/Graphics/SVG/1.1/DTD/svg11.dtd">
<!-- Generated by graphviz version 2.38.0 (20140413.2041)
 -->
<!-- Title: %3 Pages: 1 -->
<svg width="718pt" height="500pt"
	 viewBox="0.00 0.00 717.64 500.24" xmlns="http://www.w3.org/2000/svg">
	<g id="graph0" class="graph" transform="scale(1 1) rotate(0) translate(4 496.24)">
		<title>%3</title>
		<polygon fill="white" stroke="none" points="-4,4 -4,-496.24 713.635,-496.24 713.635,4 -4,4"/>
		<!-- N29 -->
		<g id="node1" class="node">
			<title>N29</title>
			<ellipse fill="none" stroke="black" cx="289.818" cy="-466.784" rx="205.081" ry="25.4118"/>
			<text text-anchor="start" x="152.833" y="-469.584" font-family="Times,serif" font-size="14.00">{Node[29]:
				ReferenceNode|name = &#39;spatial_root&#39;
			</text>
			<text text-anchor="middle" x="289.818" y="-455.584" font-family="Times,serif" font-size="14.00">}</text>
		</g>
		<!-- N30 -->
		<g id="node2" class="node">
			<title>N30</title>
			<ellipse fill="none" stroke="black" cx="289.818" cy="-326.274" rx="271.264" ry="65.1077"/>
			<text text-anchor="start" x="106.099" y="-357.074" font-family="Times,serif" font-size="14.00">
				{Node[30]|layer_class = &#39;org.neo4j.gis.spatial.EditableLayerImpl&#39;
			</text>
			<text text-anchor="start" x="106.099" y="-343.074" font-family="Times,serif" font-size="14.00">
				geomencoder_config = &#39;wkt&#39;
			</text>
			<text text-anchor="start" x="106.099" y="-329.074" font-family="Times,serif" font-size="14.00">layer = &#39;geom&#39;</text>
			<text text-anchor="start" x="106.099" y="-315.074" font-family="Times,serif" font-size="14.00">ctime =
				1478336528978
			</text>
			<text text-anchor="start" x="106.099" y="-301.074" font-family="Times,serif" font-size="14.00">geomencoder =
				&#39;org.neo4j.gis.spatial.WKTGeometryEncoder&#39;
			</text>
			<text text-anchor="middle" x="289.818" y="-287.074" font-family="Times,serif" font-size="14.00">}</text>
		</g>
		<!-- N29&#45;&gt;N30 -->
		<g id="edge1" class="edge">
			<title>N29&#45;&gt;N30</title>
			<path fill="none" stroke="#2e3436"
				  d="M289.818,-441.021C289.818,-429.813 289.818,-415.909 289.818,-401.712"/>
			<polygon fill="#2e3436" stroke="#2e3436"
					 points="293.318,-401.358 289.818,-391.358 286.318,-401.358 293.318,-401.358"/>
			<text text-anchor="middle" x="312.507" y="-412.128" font-family="Times,serif" font-size="14.00"
				  fill="#2e3436">LAYER
			</text>
		</g>
		<!-- N32 -->
		<g id="node3" class="node">
			<title>N32</title>
			<ellipse fill="none" stroke="black" cx="163.818" cy="-175.865" rx="163.636" ry="35.2113"/>
			<text text-anchor="start" x="55.9812" y="-185.665" font-family="Times,serif" font-size="14.00">
				{Node[32]|maxNodeReferences = 100
			</text>
			<text text-anchor="start" x="55.9812" y="-171.665" font-family="Times,serif" font-size="14.00">
				totalGeometryCount = 1
			</text>
			<text text-anchor="middle" x="163.818" y="-157.665" font-family="Times,serif" font-size="14.00">}</text>
		</g>
		<!-- N30&#45;&gt;N32 -->
		<g id="edge2" class="edge">
			<title>N30&#45;&gt;N32</title>
			<path fill="none" stroke="#4e9a06"
				  d="M236.383,-262.335C223.823,-247.542 210.745,-232.138 199.207,-218.547"/>
			<polygon fill="#4e9a06" stroke="#4e9a06"
					 points="201.747,-216.131 192.607,-210.774 196.411,-220.662 201.747,-216.131"/>
			<text text-anchor="middle" x="282.449" y="-232.02" font-family="Times,serif" font-size="14.00"
				  fill="#4e9a06">RTREE_METADATA
			</text>
		</g>
		<!-- N31 -->
		<g id="node4" class="node">
			<title>N31</title>
			<ellipse fill="none" stroke="black" cx="522.818" cy="-175.865" rx="177.106" ry="25.4118"/>
			<text text-anchor="start" x="405.623" y="-178.665" font-family="Times,serif" font-size="14.00">
				{Node[31]|bbox = [15.2, 60.1, 15.3, 60.1]
			</text>
			<text text-anchor="middle" x="522.818" y="-164.665" font-family="Times,serif" font-size="14.00">}</text>
		</g>
		<!-- N30&#45;&gt;N31 -->
		<g id="edge3" class="edge">
			<title>N30&#45;&gt;N31</title>
			<path fill="none" stroke="#a40000" d="M384.252,-265.124C416.099,-244.839 450.23,-223.1 476.649,-206.272"/>
			<polygon fill="#a40000" stroke="#a40000"
					 points="478.744,-209.088 485.298,-200.763 474.984,-203.184 478.744,-209.088"/>
			<text text-anchor="middle" x="484.122" y="-232.02" font-family="Times,serif" font-size="14.00"
				  fill="#a40000">RTREE_ROOT
			</text>
		</g>
		<!-- N33 -->
		<g id="node5" class="node">
			<title>N33</title>
			<ellipse fill="none" stroke="black" cx="522.818" cy="-45.2548" rx="186.634" ry="45.011"/>
			<text text-anchor="start" x="398.719" y="-62.0548" font-family="Times,serif" font-size="14.00">
				{Node[33]|gtype = 2
			</text>
			<text text-anchor="start" x="398.719" y="-48.0548" font-family="Times,serif" font-size="14.00">bbox = [15.3,
				60.1, 16.2, 60.1]
			</text>
			<text text-anchor="start" x="398.719" y="-34.0548" font-family="Times,serif" font-size="14.00">wkt = &#39;LINESTRING
				(16.2 60.1, 15.3 60.1)&#39;
			</text>
			<text text-anchor="middle" x="522.818" y="-20.0548" font-family="Times,serif" font-size="14.00">}</text>
		</g>
		<!-- N31&#45;&gt;N33 -->
		<g id="edge4" class="edge">
			<title>N31&#45;&gt;N33</title>
			<path fill="none" stroke="#204a87"
				  d="M522.818,-150.372C522.818,-136.298 522.818,-118.031 522.818,-100.734"/>
			<polygon fill="#204a87" stroke="#204a87"
					 points="526.318,-100.702 522.818,-90.7016 519.318,-100.702 526.318,-100.702"/>
			<text text-anchor="middle" x="588.125" y="-111.31" font-family="Times,serif" font-size="14.00"
				  fill="#204a87">RTREE_REFERENCE
			</text>
		</g>
	</g>
</svg>
