<?xml version="1.0" encoding="UTF-8" standalone="no"?>
<!DOCTYPE svg PUBLIC "-//W3C//DTD SVG 1.1//EN"
 "http://www.w3.org/Graphics/SVG/1.1/DTD/svg11.dtd">
<!-- Generated by graphviz version 2.38.0 (20140413.2041)
 -->
<!-- Title: %3 Pages: 1 -->
<svg width="561pt" height="340pt"
 viewBox="0.00 0.00 560.95 339.93" xmlns="http://www.w3.org/2000/svg" xmlns:xlink="http://www.w3.org/1999/xlink">
<g id="graph0" class="graph" transform="scale(1 1) rotate(0) translate(4 335.931)">
<title>%3</title>
<polygon fill="white" stroke="none" points="-4,4 -4,-335.931 556.95,-335.931 556.95,4 -4,4"/>
<!-- N25 -->
<g id="node1" class="node"><title>N25</title>
<ellipse fill="none" stroke="black" cx="271.132" cy="-306.475" rx="205.081" ry="25.4118"/>
<text text-anchor="start" x="134.147" y="-309.275" font-family="Times,serif" font-size="14.00">{Node[25]: ReferenceNode|name = &#39;spatial_root&#39;</text>
<text text-anchor="middle" x="271.132" y="-295.275" font-family="Times,serif" font-size="14.00">}</text>
</g>
<!-- N26 -->
<g id="node2" class="node"><title>N26</title>
<ellipse fill="none" stroke="black" cx="271.132" cy="-165.966" rx="271.264" ry="65.1077"/>
<text text-anchor="start" x="87.4127" y="-196.766" font-family="Times,serif" font-size="14.00">{Node[26]|layer_class = &#39;org.neo4j.gis.spatial.EditableLayerImpl&#39;</text>
<text text-anchor="start" x="87.4127" y="-182.766" font-family="Times,serif" font-size="14.00">geomencoder_config = &#39;wkt&#39;</text>
<text text-anchor="start" x="87.4127" y="-168.766" font-family="Times,serif" font-size="14.00">layer = &#39;geom&#39;</text>
<text text-anchor="start" x="87.4127" y="-154.766" font-family="Times,serif" font-size="14.00">ctime = 1478336528866</text>
<text text-anchor="start" x="87.4127" y="-140.766" font-family="Times,serif" font-size="14.00">geomencoder = &#39;org.neo4j.gis.spatial.WKTGeometryEncoder&#39;</text>
<text text-anchor="middle" x="271.132" y="-126.766" font-family="Times,serif" font-size="14.00">}</text>
</g>
<!-- N25&#45;&gt;N26 -->
<g id="edge1" class="edge"><title>N25&#45;&gt;N26</title>
<path fill="none" stroke="#2e3436" d="M271.132,-280.712C271.132,-269.504 271.132,-255.6 271.132,-241.404"/>
<polygon fill="#2e3436" stroke="#2e3436" points="274.632,-241.049 271.132,-231.049 267.632,-241.049 274.632,-241.049"/>
<text text-anchor="middle" x="293.82" y="-251.819" font-family="Times,serif" font-size="14.00" fill="#2e3436">LAYER</text>
</g>
<!-- N27 -->
<g id="node3" class="node"><title>N27</title>
<ellipse fill="none" stroke="black" cx="153.132" cy="-25.4558" rx="54.0112" ry="18"/>
<text text-anchor="middle" x="153.132" y="-21.2558" font-family="Times,serif" font-size="14.00">{Node[27]|}</text>
</g>
<!-- N26&#45;&gt;N27 -->
<g id="edge2" class="edge"><title>N26&#45;&gt;N27</title>
<path fill="none" stroke="#4e9a06" d="M217.312,-101.791C201.865,-83.6591 185.941,-64.9675 173.819,-50.7385"/>
<polygon fill="#4e9a06" stroke="#4e9a06" points="176.303,-48.2567 167.153,-42.9143 170.974,-52.7963 176.303,-48.2567"/>
<text text-anchor="middle" x="242.436" y="-71.7117" font-family="Times,serif" font-size="14.00" fill="#4e9a06">RTREE_ROOT</text>
</g>
<!-- N28 -->
<g id="node4" class="node"><title>N28</title>
<ellipse fill="none" stroke="black" cx="389.132" cy="-25.4558" rx="163.636" ry="25.4118"/>
<text text-anchor="start" x="281.295" y="-28.2558" font-family="Times,serif" font-size="14.00">{Node[28]|maxNodeReferences = 100</text>
<text text-anchor="middle" x="389.132" y="-14.2558" font-family="Times,serif" font-size="14.00">}</text>
</g>
<!-- N26&#45;&gt;N28 -->
<g id="edge3" class="edge"><title>N26&#45;&gt;N28</title>
<path fill="none" stroke="#a40000" d="M324.952,-101.791C337.738,-86.7828 350.85,-71.3913 361.863,-58.4644"/>
<polygon fill="#a40000" stroke="#a40000" points="364.606,-60.6414 368.427,-50.7595 359.278,-56.1019 364.606,-60.6414"/>
<text text-anchor="middle" x="413.763" y="-71.7117" font-family="Times,serif" font-size="14.00" fill="#a40000">RTREE_METADATA</text>
</g>
</g>
</svg>
